<mxfile host="Electron" agent="Mozilla/5.0 (Windows NT 10.0; Win64; x64) AppleWebKit/537.36 (KHTML, like Gecko) draw.io/25.0.2 Chrome/128.0.6613.186 Electron/32.2.5 Safari/537.36" version="25.0.2">
  <diagram name="Página-1" id="TM_B9TkPrp0D2saOCIgw">
    <mxGraphModel dx="1290" dy="691" grid="1" gridSize="10" guides="1" tooltips="1" connect="1" arrows="1" fold="1" page="1" pageScale="1" pageWidth="827" pageHeight="1169" math="0" shadow="0">
      <root>
        <mxCell id="0" />
        <mxCell id="1" parent="0" />
        <mxCell id="QK0ypkcbLk-9eBgRZr0t-9" style="edgeStyle=orthogonalEdgeStyle;rounded=0;orthogonalLoop=1;jettySize=auto;html=1;entryX=0.5;entryY=0;entryDx=0;entryDy=0;" edge="1" parent="1" source="QK0ypkcbLk-9eBgRZr0t-10" target="QK0ypkcbLk-9eBgRZr0t-17">
          <mxGeometry relative="1" as="geometry" />
        </mxCell>
        <mxCell id="QK0ypkcbLk-9eBgRZr0t-10" value="&lt;font style=&quot;font-size: 21px;&quot;&gt;INICIO&lt;/font&gt;" style="rounded=1;whiteSpace=wrap;html=1;" vertex="1" parent="1">
          <mxGeometry x="174" y="30" width="120" height="60" as="geometry" />
        </mxCell>
        <mxCell id="QK0ypkcbLk-9eBgRZr0t-11" value="&lt;span style=&quot;font-size: 21px;&quot;&gt;FIM&lt;/span&gt;" style="rounded=1;whiteSpace=wrap;html=1;" vertex="1" parent="1">
          <mxGeometry x="330" y="1000" width="120" height="60" as="geometry" />
        </mxCell>
        <mxCell id="QK0ypkcbLk-9eBgRZr0t-37" style="edgeStyle=orthogonalEdgeStyle;rounded=0;orthogonalLoop=1;jettySize=auto;html=1;entryX=0.5;entryY=0;entryDx=0;entryDy=0;" edge="1" parent="1" source="QK0ypkcbLk-9eBgRZr0t-15" target="QK0ypkcbLk-9eBgRZr0t-36">
          <mxGeometry relative="1" as="geometry">
            <mxPoint x="470" y="670" as="targetPoint" />
          </mxGeometry>
        </mxCell>
        <mxCell id="QK0ypkcbLk-9eBgRZr0t-15" value="n1 &amp;gt; n2" style="rhombus;whiteSpace=wrap;html=1;" vertex="1" parent="1">
          <mxGeometry x="260" y="350" width="130" height="130" as="geometry" />
        </mxCell>
        <mxCell id="QK0ypkcbLk-9eBgRZr0t-33" style="edgeStyle=orthogonalEdgeStyle;rounded=0;orthogonalLoop=1;jettySize=auto;html=1;" edge="1" parent="1" source="QK0ypkcbLk-9eBgRZr0t-17" target="QK0ypkcbLk-9eBgRZr0t-15">
          <mxGeometry relative="1" as="geometry" />
        </mxCell>
        <mxCell id="QK0ypkcbLk-9eBgRZr0t-17" value="&lt;font style=&quot;&quot;&gt;&lt;br&gt;&lt;span style=&quot;font-family: Helvetica; font-size: 12px; font-style: normal; font-variant-ligatures: normal; font-variant-caps: normal; font-weight: 400; letter-spacing: normal; orphans: 2; text-align: center; text-indent: 0px; text-transform: none; widows: 2; word-spacing: 0px; -webkit-text-stroke-width: 0px; white-space: normal; text-decoration-thickness: initial; text-decoration-style: initial; text-decoration-color: initial; float: none; display: inline !important;&quot;&gt;n1 =&lt;/span&gt;&lt;/font&gt;&lt;div style=&quot;forced-color-adjust: none; border-color: rgb(0, 0, 0); font-family: Helvetica; font-size: 12px; font-style: normal; font-variant-ligatures: normal; font-variant-caps: normal; font-weight: 400; letter-spacing: normal; orphans: 2; text-align: center; text-indent: 0px; text-transform: none; widows: 2; word-spacing: 0px; -webkit-text-stroke-width: 0px; white-space: normal; text-decoration-thickness: initial; text-decoration-style: initial; text-decoration-color: initial;&quot;&gt;&lt;font style=&quot;&quot;&gt;n2 =&lt;/font&gt;&lt;/div&gt;&lt;div style=&quot;forced-color-adjust: none; border-color: rgb(0, 0, 0); font-family: Helvetica; font-size: 12px; font-style: normal; font-variant-ligatures: normal; font-variant-caps: normal; font-weight: 400; letter-spacing: normal; orphans: 2; text-align: center; text-indent: 0px; text-transform: none; widows: 2; word-spacing: 0px; -webkit-text-stroke-width: 0px; white-space: normal; text-decoration-thickness: initial; text-decoration-style: initial; text-decoration-color: initial;&quot;&gt;&lt;font style=&quot;&quot;&gt;n3 =&lt;/font&gt;&lt;/div&gt;" style="html=1;strokeWidth=2;shape=manualInput;whiteSpace=wrap;rounded=1;size=26;arcSize=11;" vertex="1" parent="1">
          <mxGeometry x="150" y="180" width="130" height="100" as="geometry" />
        </mxCell>
        <mxCell id="QK0ypkcbLk-9eBgRZr0t-22" style="edgeStyle=orthogonalEdgeStyle;rounded=0;orthogonalLoop=1;jettySize=auto;html=1;entryX=0.5;entryY=0;entryDx=0;entryDy=0;" edge="1" parent="1" source="QK0ypkcbLk-9eBgRZr0t-15" target="QK0ypkcbLk-9eBgRZr0t-45">
          <mxGeometry relative="1" as="geometry">
            <mxPoint x="180" y="670" as="targetPoint" />
            <Array as="points">
              <mxPoint x="175" y="415" />
            </Array>
          </mxGeometry>
        </mxCell>
        <mxCell id="QK0ypkcbLk-9eBgRZr0t-23" value="SIM" style="text;html=1;align=center;verticalAlign=middle;resizable=0;points=[];autosize=1;strokeColor=none;fillColor=none;" vertex="1" parent="1">
          <mxGeometry x="440" y="380" width="40" height="30" as="geometry" />
        </mxCell>
        <mxCell id="QK0ypkcbLk-9eBgRZr0t-53" style="edgeStyle=orthogonalEdgeStyle;rounded=0;orthogonalLoop=1;jettySize=auto;html=1;" edge="1" parent="1" source="QK0ypkcbLk-9eBgRZr0t-36">
          <mxGeometry relative="1" as="geometry">
            <mxPoint x="480" y="910" as="targetPoint" />
          </mxGeometry>
        </mxCell>
        <mxCell id="QK0ypkcbLk-9eBgRZr0t-36" value="n1 &amp;gt; n3" style="rhombus;whiteSpace=wrap;html=1;" vertex="1" parent="1">
          <mxGeometry x="520" y="660" width="130" height="130" as="geometry" />
        </mxCell>
        <mxCell id="QK0ypkcbLk-9eBgRZr0t-59" style="edgeStyle=orthogonalEdgeStyle;rounded=0;orthogonalLoop=1;jettySize=auto;html=1;" edge="1" parent="1" source="QK0ypkcbLk-9eBgRZr0t-39" target="QK0ypkcbLk-9eBgRZr0t-11">
          <mxGeometry relative="1" as="geometry">
            <Array as="points">
              <mxPoint x="700" y="1100" />
              <mxPoint x="390" y="1100" />
            </Array>
          </mxGeometry>
        </mxCell>
        <mxCell id="QK0ypkcbLk-9eBgRZr0t-39" value="n1 é o maior" style="strokeWidth=2;html=1;shape=mxgraph.flowchart.document2;whiteSpace=wrap;size=0.25;" vertex="1" parent="1">
          <mxGeometry x="620" y="820" width="160" height="90" as="geometry" />
        </mxCell>
        <mxCell id="QK0ypkcbLk-9eBgRZr0t-44" style="edgeStyle=orthogonalEdgeStyle;rounded=0;orthogonalLoop=1;jettySize=auto;html=1;entryX=0.5;entryY=0;entryDx=0;entryDy=0;" edge="1" parent="1">
          <mxGeometry relative="1" as="geometry">
            <mxPoint x="215" y="660" as="sourcePoint" />
            <mxPoint x="215" y="660" as="targetPoint" />
          </mxGeometry>
        </mxCell>
        <mxCell id="QK0ypkcbLk-9eBgRZr0t-47" value="" style="edgeStyle=orthogonalEdgeStyle;rounded=0;orthogonalLoop=1;jettySize=auto;html=1;" edge="1" parent="1" source="QK0ypkcbLk-9eBgRZr0t-45">
          <mxGeometry relative="1" as="geometry">
            <mxPoint x="340" y="820" as="targetPoint" />
          </mxGeometry>
        </mxCell>
        <mxCell id="QK0ypkcbLk-9eBgRZr0t-56" style="edgeStyle=orthogonalEdgeStyle;rounded=0;orthogonalLoop=1;jettySize=auto;html=1;" edge="1" parent="1" source="QK0ypkcbLk-9eBgRZr0t-45" target="QK0ypkcbLk-9eBgRZr0t-55">
          <mxGeometry relative="1" as="geometry" />
        </mxCell>
        <mxCell id="QK0ypkcbLk-9eBgRZr0t-45" value="n2 &amp;gt; n3" style="rhombus;whiteSpace=wrap;html=1;" vertex="1" parent="1">
          <mxGeometry x="110" y="670" width="130" height="130" as="geometry" />
        </mxCell>
        <mxCell id="QK0ypkcbLk-9eBgRZr0t-60" style="edgeStyle=orthogonalEdgeStyle;rounded=0;orthogonalLoop=1;jettySize=auto;html=1;entryX=0.25;entryY=0;entryDx=0;entryDy=0;" edge="1" parent="1" source="QK0ypkcbLk-9eBgRZr0t-48" target="QK0ypkcbLk-9eBgRZr0t-11">
          <mxGeometry relative="1" as="geometry" />
        </mxCell>
        <mxCell id="QK0ypkcbLk-9eBgRZr0t-48" value="n2 é o maior" style="strokeWidth=2;html=1;shape=mxgraph.flowchart.document2;whiteSpace=wrap;size=0.25;" vertex="1" parent="1">
          <mxGeometry x="270" y="820" width="160" height="90" as="geometry" />
        </mxCell>
        <mxCell id="QK0ypkcbLk-9eBgRZr0t-51" value="NAO" style="text;html=1;align=center;verticalAlign=middle;resizable=0;points=[];autosize=1;strokeColor=none;fillColor=none;" vertex="1" parent="1">
          <mxGeometry x="195" y="368" width="50" height="30" as="geometry" />
        </mxCell>
        <mxCell id="QK0ypkcbLk-9eBgRZr0t-52" style="edgeStyle=orthogonalEdgeStyle;rounded=0;orthogonalLoop=1;jettySize=auto;html=1;exitX=1;exitY=0.5;exitDx=0;exitDy=0;entryX=0.5;entryY=0;entryDx=0;entryDy=0;entryPerimeter=0;" edge="1" parent="1" source="QK0ypkcbLk-9eBgRZr0t-36" target="QK0ypkcbLk-9eBgRZr0t-39">
          <mxGeometry relative="1" as="geometry" />
        </mxCell>
        <mxCell id="QK0ypkcbLk-9eBgRZr0t-58" style="edgeStyle=orthogonalEdgeStyle;rounded=0;orthogonalLoop=1;jettySize=auto;html=1;entryX=1;entryY=0.5;entryDx=0;entryDy=0;" edge="1" parent="1" source="QK0ypkcbLk-9eBgRZr0t-54" target="QK0ypkcbLk-9eBgRZr0t-11">
          <mxGeometry relative="1" as="geometry" />
        </mxCell>
        <mxCell id="QK0ypkcbLk-9eBgRZr0t-54" value="n3 é o maior" style="strokeWidth=2;html=1;shape=mxgraph.flowchart.document2;whiteSpace=wrap;size=0.25;" vertex="1" parent="1">
          <mxGeometry x="400" y="910" width="160" height="90" as="geometry" />
        </mxCell>
        <mxCell id="QK0ypkcbLk-9eBgRZr0t-57" style="edgeStyle=orthogonalEdgeStyle;rounded=0;orthogonalLoop=1;jettySize=auto;html=1;entryX=0;entryY=0.75;entryDx=0;entryDy=0;" edge="1" parent="1" source="QK0ypkcbLk-9eBgRZr0t-55" target="QK0ypkcbLk-9eBgRZr0t-11">
          <mxGeometry relative="1" as="geometry" />
        </mxCell>
        <mxCell id="QK0ypkcbLk-9eBgRZr0t-55" value="n3 é o maior" style="strokeWidth=2;html=1;shape=mxgraph.flowchart.document2;whiteSpace=wrap;size=0.25;" vertex="1" parent="1">
          <mxGeometry x="14" y="920" width="160" height="90" as="geometry" />
        </mxCell>
      </root>
    </mxGraphModel>
  </diagram>
</mxfile>
